#!OML:ASF G:\JayActor3\Patient Classification 1\Patient 1\Session 5\male.ASF
:FULLY-SPECIFIED
:DEGREES
401
root 5.85387 15.4968 -7.74014 362.163 -81.6355 -0.0617196
lowerback 23.5692 -1.62987 0.0257932
upperback 14.0695 -3.39666 4.90283
thorax 2.77009 -2.50964 5.9727
lowerneck -3.34507 -1.31097 -1.84679
upperneck 41.7249 -5.0819 0.480359
head 15.2602 -3.03654 -0.295198
rclavicle -1.35174e-014 -3.26007e-014
rhumerus 15.1709 -33.5498 -48.6688
rradius 91.5139
rwrist -87.3322
rhand -23.9832 -17.1947
rfingers 7.12502
rthumb 2.49362 -47.1599
lclavicle -1.35174e-014 -3.26007e-014
lhumerus 4.88041 44.7034 52.2796
lradius 108.436
lwrist 112.352
lhand -23.2013 28.8266
lfingers 7.12502
lthumb 3.24867 58.7816
rfemur -36.0049 -16.9801 16.7934
rtibia 65.2689
rfoot -27.1808 -13.2305
rtoes -0.314236
lfemur -51.4963 18.0932 -11.8152
ltibia 74.8936
lfoot 1.28459 -3.4867
ltoes -8.66287
402
root 5.86131 15.4354 -7.68333 358.055 -82.3199 4.24082
lowerback 23.6311 -1.60599 -0.058428
upperback 14.1852 -3.39944 4.50975
thorax 2.84254 -2.50189 5.58794
lowerneck -3.40796 -1.1789 -1.92351
upperneck 41.7705 -4.84866 0.399417
head 15.2928 -2.95971 -0.288124
rclavicle -5.1684e-014 5.1684e-014
rhumerus 15.1201 -32.326 -48.6404
rradius 93.6112
rwrist -87.6839
rhand -21.7353 -17.7517
rfingers 7.12502
rthumb 4.66441 -47.6803
lclavicle -5.1684e-014 5.1684e-014
lhumerus 4.60189 44.2185 52.4363
lradius 110.966
lwrist 113.106
lhand -21.0181 29.1961
lfingers 7.12502
lthumb 5.35685 59.1083
rfemur -36.9735 -17.1845 15.9917
rtibia 66.3866
rfoot -27.1 -12.4801
rtoes -0.844131
lfemur -50.9255 17.8185 -12.408
ltibia 74.3811
lfoot 0.0958034 -3.01208
ltoes -9.50273
403
root 5.86857 15.3731 -7.62546 352.9 -82.9674 9.58753
lowerback 23.6948 -1.57538 -0.149776
upperback 14.2991 -3.39462 4.08686
thorax 2.90968 -2.48892 5.17445
lowerneck -3.47575 -1.04732 -1.98548
upperneck 41.8091 -4.62463 0.34084
head 15.3236 -2.88181 -0.275257
rclavicle 1.27222e-014 1.35174e-014
rhumerus 15.0091 -31.0067 -48.5309
rradius 95.6811
rwrist -87.8481
rhand -19.382 -18.1972
rfingers 7.12502
rthumb 6.93638 -48.0635
lclavicle 1.27222e-014 1.35174e-014
lhumerus 4.36645 43.5817 52.5669
lradius 113.414
lwrist 113.69
lhand -18.7183 29.4973
lfingers 7.12502
lthumb 7.57701 59.3416
rfemur -37.9568 -17.3905 15.158
rtibia 67.5043
rfoot -27.0054 -11.7158
rtoes -1.37314
lfemur -50.3987 17.594 -13.0602
ltibia 73.9433
lfoot -1.12315 -2.52631
ltoes -10.3217
404
root 5.87564 15.3097 -7.56671 346.475 -83.5517 16.1979
lowerback 23.7624 -1.53775 -0.246123
upperback 14.4111 -3.38177 3.63561
thorax 2.97063 -2.47062 4.73281
lowerneck -3.54853 -0.91719 -2.03315
upperneck 41.8413 -4.41131 0.304849
head 15.353 -2.80343 -0.256585
rclavicle -3.81667e-014 5.08889e-014
rhumerus 14.8427 -29.5916 -48.3433
rradius 97.7189
rwrist -87.8261
rhand -16.9337 -18.5026
rfingers 7.12502
rthumb 9.29935 -48.2775
lclavicle -3.81667e-014 5.08889e-014
lhumerus 4.17324 42.7849 52.6698
lradius 115.771
lwrist 114.108
lhand -16.3152 29.7431
lfingers 7.12502
lthumb 9.89603 59.4905
rfemur -38.9512 -17.5958 14.2955
rtibia 68.619
rfoot -26.8979 -10.9407
rtoes -1.89589
lfemur -49.9157 17.4195 -13.7684
ltibia 73.5797
lfoot -2.36666 -2.02821
ltoes -11.1159
405
root 5.88255 15.2456 -7.50729 338.592 -84.0408 24.2589
lowerback 23.8365 -1.4921 -0.34812
upperback 14.5206 -3.36011 3.15773
thorax 3.02404 -2.44689 4.26541
lowerneck -3.62541 -0.789288 -2.06679
upperneck 41.8665 -4.20894 0.289273
head 15.3802 -2.72494 -0.232945
rclavicle -3.89618e-014 -1.59028e-015
rhumerus 14.6269 -28.0765 -48.0801
rradius 99.7167
rwrist -87.62
rhand -14.4062 -18.6724
rfingers 7.12502
rthumb 11.7374 -48.3236
lclavicle -3.89618e-014 -1.59028e-015
lhumerus 4.01789 41.8196 52.7387
lradius 118.025
lwrist 114.358
lhand -13.819 29.9438
lfingers 7.12502
lthumb 12.3036 59.5618
rfemur -39.9543 -17.796 13.4069
rtibia 69.7273
rfoot -26.7766 -10.1608
rtoes -2.41686
lfemur -49.4767 17.2955 -14.5295
ltibia 73.2889
lfoot -3.6278 -1.5173
ltoes -11.8802
406
root 5.88928 15.1807 -7.44743 329.221 -84.3929 33.7972
lowerback 23.9196 -1.43854 -0.456477
upperback 14.6282 -3.33044 2.65535
thorax 3.06992 -2.41857 3.77526
lowerneck -3.70756 -0.663689 -2.08738
upperneck 41.8861 -4.01687 0.292063
head 15.4063 -2.64641 -0.204983
rclavicle 3.22031e-014 -1.51076e-014
rhumerus 14.3692 -26.4567 -47.7465
rradius 101.667
rwrist -87.2286
rhand -11.8075 -18.7004
rfingers 7.12502
rthumb 14.2425 -48.1921
lclavicle 3.22031e-014 -1.51076e-014
lhumerus 3.89684 40.6795 52.7705
lradius 120.166
lwrist 114.437
lhand -11.2413 30.1164
lfingers 7.12502
lthumb 14.7881 59.5688
rfemur -40.9623 -17.9901 12.4938
rtibia 70.8316
rfoot -26.6472 -9.37836
rtoes -2.93096
lfemur -49.0802 17.2207 -15.3399
ltibia 73.0728
lfoot -4.90378 -0.996002
ltoes -12.6026
407
root 5.8959 15.1153 -7.38739 318.699 -84.5702 44.4734
lowerback 24.0141 -1.37753 -0.56751
upperback 14.7332 -3.2932 2.13235
thorax 3.10693 -2.38599 3.26462
lowerneck -3.79295 -0.540872 -2.09696
upperneck 41.8992 -3.83479 0.311433
head 15.4301 -2.56821 -0.172967
rclavicle 7.95139e-015 5.56597e-015
rhumerus 14.076 -24.7268 -47.346
rradius 103.563
rwrist -86.6545
rhand -9.14665 -18.5955
rfingers 7.12502
rthumb 16.8053 -47.8882
lclavicle 7.95139e-015 5.56597e-015
lhumerus 3.80333 39.3588 52.7617
lradius 122.186
lwrist 114.339
lhand -8.59502 30.281
lfingers 7.12502
lthumb 17.3362 59.5278
rfemur -41.9703 -18.1744 11.5649
rtibia 71.9226
rfoot -26.507 -8.60135
rtoes -3.43751
lfemur -48.7245 17.195 -16.1908
ltibia 72.922
lfoot -6.18407 -0.46588
ltoes -13.2867
408
root 5.90226 15.046 -7.32727 307.695 -84.5446 55.6187
lowerback 24.1196 -1.30912 -0.684082
upperback 14.8359 -3.24955 1.5919
thorax 3.13652 -2.3503 2.73858
lowerneck -3.88138 -0.420722 -2.09722
upperneck 41.9062 -3.6612 0.344189
head 15.4516 -2.49035 -0.137763
rclavicle 2.10712e-014 -1.98785e-015
rhumerus 13.7569 -22.8792 -46.8834
rradius 105.395
rwrist -85.9014
rhand -6.43247 -18.3593
rfingers 7.12502
rthumb 19.4166 -47.4099
lclavicle 2.10712e-014 -1.98785e-015
lhumerus 3.73043 37.8542 52.7075
lradius 124.075
lwrist 114.058
lhand -5.89728 30.4501
lfingers 7.12502
lthumb 19.9311 59.448
rfemur -42.9928 -18.3497 10.6203
rtibia 73.0145
rfoot -26.356 -7.83275
rtoes -3.93673
lfemur -48.4272 17.2174 -17.0768
ltibia 72.8501
lfoot -7.4616 0.0715611
ltoes -13.9317
409
root 5.90857 14.9798 -7.2675 297.112 -84.3113 66.3232
lowerback 24.2399 -1.23527 -0.804353
upperback 14.9376 -3.20245 1.03787
thorax 3.15907 -2.31334 2.20071
lowerneck -3.97204 -0.303443 -2.08928
upperneck 41.9067 -3.49483 0.386512
head 15.4705 -2.41291 -0.100613
rclavicle -5.64548e-014 4.69132e-014
rhumerus 13.4202 -20.9069 -46.3637
rradius 107.155
rwrist -84.9748
rhand -3.66993 -18.0032
rfingers 7.12502
rthumb 22.0709 -46.7637
lclavicle -5.64548e-014 4.69132e-014
lhumerus 3.67286 36.1625 52.6041
lradius 125.821
lwrist 113.585
lhand -3.15163 30.6416
lfingers 7.12502
lthumb 22.5684 59.3424
rfemur -43.9861 -18.5129 9.66837
rtibia 74.0692
rfoot -26.1986 -7.08277
rtoes -4.42444
lfemur -48.141 17.2773 -17.9932
ltibia 72.8128
lfoot -8.73438 0.620482
ltoes -14.5313
410
root 5.9147 14.9134 -7.20822 287.57 -83.8962 75.9679
lowerback 24.3773 -1.15279 -0.929363
upperback 15.0379 -3.14865 0.473526
thorax 3.17331 -2.27383 1.65421
lowerneck -4.0619 -0.188715 -2.07766
upperneck 41.8979 -3.33511 0.441009
head 15.4845 -2.33601 -0.0594119
rclavicle 1.51076e-014 -2.22639e-014
rhumerus 13.0721 -18.8022 -45.7905
rradius 108.832
rwrist -83.8803
rhand -0.864571 -17.5348
rfingers 7.12502
rthumb 24.762 -45.952
lclavicle 1.51076e-014 -2.22639e-014
lhumerus 3.62502 34.2818 52.449
lradius 127.415
lwrist 112.917
lhand -0.372696 30.8712
lfingers 7.12502
lthumb 25.2333 59.2227
rfemur -44.9656 -18.6548 8.7139
rtibia 75.1005
rfoot -26.035 -6.35518
rtoes -4.90471
lfemur -47.8803 17.3827 -18.9296
ltibia 72.8223
lfoot -9.99728 1.17751
ltoes -15.0822
411
root 5.92072 14.8472 -7.14965 279.423 -83.3315 84.197
lowerback 24.531 -1.06383 -1.05734
upperback 15.1365 -3.09091 -0.0973583
thorax 3.18009 -2.2333 1.10222
lowerneck -4.15178 -0.0768488 -2.06261
upperneck 41.8825 -3.18121 0.502904
head 15.4952 -2.25993 -0.0161401
rclavicle -7.55382e-015 -2.26615e-014
rhumerus 12.7193 -16.5602 -45.1691
rradius 110.418
rwrist -82.6213
rhand 1.9887 -16.9662
rfingers 7.12502
rthumb 27.4938 -44.9791
lclavicle -7.55382e-015 -2.26615e-014
lhumerus 3.58477 32.2127 52.241
lradius 128.845
lwrist 112.052
lhand 2.42244 31.1505
lfingers 7.12502
lthumb 27.9085 59.0968
rfemur -45.9273 -18.7763 7.76121
rtibia 76.1013
rfoot -25.8633 -5.65388
rtoes -5.37272
lfemur -47.6431 17.5247 -19.88
ltibia 72.8667
lfoot -11.2405 1.74396
ltoes -15.5914
412
root 5.92665 14.7812 -7.09197 272.689 -82.6529 90.9918
lowerback 24.7019 -0.969925 -1.18814
upperback 15.2344 -3.03175 -0.671351
thorax 3.18029 -2.19324 0.548413
lowerneck -4.24106 0.0323125 -2.04632
upperneck 41.8598 -3.03157 0.569904
head 15.502 -2.18462 0.0288269
rclavicle 3.73715e-014 -5.96354e-015
rhumerus 12.3696 -14.1746 -44.5021
rradius 111.899
rwrist -81.2042
rhand 4.88014 -16.3174
rfingers 7.12502
rthumb 30.2556 -43.8581
lclavicle 3.73715e-014 -5.96354e-015
lhumerus 3.55039 29.9609 51.9803
lradius 130.1
lwrist 110.989
lhand 5.22006 31.4914
lfingers 7.12502
lthumb 30.5798 58.9721
rfemur -46.8664 -18.8779 6.81221
rtibia 77.0741
rfoot -25.689 -4.9822
rtoes -5.83361
lfemur -47.4258 17.6963 -20.8389
ltibia 72.9444
lfoot -12.463 2.31887
ltoes -16.0516
413
root 5.93246 14.7158 -7.03538 267.192 -81.8945 96.5283
lowerback 24.8876 -0.871327 -1.32
upperback 15.3317 -2.97138 -1.2453
thorax 3.17562 -2.15379 -0.00538331
lowerneck -4.33003 0.13837 -2.02881
upperneck 41.8309 -2.88615 0.639682
head 15.5054 -2.11032 0.0744556
rclavicle -1.90833e-014 5.36719e-015
rhumerus 12.0266 -11.6432 -43.793
rradius 113.266
rwrist -79.6273
rhand 7.81082 -15.6041
rfingers 7.12502
rthumb 33.0471 -42.5944
lclavicle -1.90833e-014 5.36719e-015
lhumerus 3.52286 27.5324 51.6679
lradius 131.168
lwrist 109.728
lhand 8.00276 31.8992
lfingers 7.12502
lthumb 33.2297 58.8507
rfemur -47.7814 -18.957 5.87144
rtibia 78.0171
rfoot -25.5135 -4.34255
rtoes -6.28512
lfemur -47.2276 17.8925 -21.8
ltibia 73.049
lfoot -13.6601 2.90414
ltoes -16.4727
414
root 5.93814 14.6511 -6.98008 262.715 -81.0827 101.023
lowerback 25.0884 -0.768698 -1.45224
upperback 15.4289 -2.9108 -1.81614
thorax 3.1667 -2.11556 -0.556521
lowerneck -4.41792 0.24119 -2.01128
upperneck 41.7959 -2.74455 0.711088
head 15.5054 -2.03719 0.12051
rclavicle -3.83654e-014 -2.96189e-014
rhumerus 11.6949 -8.9636 -43.0449
rradius 114.503
rwrist -77.8924
rhand 10.7995 -14.8244
rfingers 7.12502
rthumb 35.8842 -41.1692
lclavicle -3.83654e-014 -2.96189e-014
lhumerus 3.50425 24.94 51.3059
lradius 132.042
lwrist 108.27
lhand 10.7394 32.3915
lfingers 7.12502
lthumb 35.8273 58.7502
rfemur -48.6668 -19.012 4.94105
rtibia 78.9278
rfoot -25.3382 -3.73718
rtoes -6.73119
lfemur -47.0427 18.1069 -22.7562
ltibia 73.1743
lfoot -14.8284 3.4964
ltoes -16.8414
